<svg id="visual" viewBox="0 0 360 740" width="360" height="740" xmlns="http://www.w3.org/2000/svg" xmlns:xlink="http://www.w3.org/1999/xlink" version="1.1"><rect x="0" y="0" width="360" height="740" fill="#202020"></rect><path d="M105 0L134 106L136 211L138 317L101 423L138 529L96 634L106 740L0 740L0 634L0 529L0 423L0 317L0 211L0 106L0 0Z" fill="#4d4d4d"></path><path d="M81 0L120 106L77 211L106 317L111 423L76 529L77 634L107 740L0 740L0 634L0 529L0 423L0 317L0 211L0 106L0 0Z" fill="#414141"></path><path d="M56 0L67 106L80 211L70 317L94 423L89 529L75 634L57 740L0 740L0 634L0 529L0 423L0 317L0 211L0 106L0 0Z" fill="#363636"></path><path d="M41 0L56 106L57 211L35 317L59 423L40 529L55 634L46 740L0 740L0 634L0 529L0 423L0 317L0 211L0 106L0 0Z" fill="#2b2b2b"></path><path d="M24 0L18 106L30 211L22 317L43 423L40 529L46 634L24 740L0 740L0 634L0 529L0 423L0 317L0 211L0 106L0 0Z" fill="#202020"></path></svg>