<svg id="visual" viewBox="0 0 675 900" width="675" height="900" xmlns="http://www.w3.org/2000/svg" xmlns:xlink="http://www.w3.org/1999/xlink" version="1.1"><rect x="0" y="0" width="675" height="900" fill="#202020"></rect><defs><linearGradient id="grad1_0" x1="0%" y1="0%" x2="100%" y2="100%"><stop offset="30%" stop-color="#202020" stop-opacity="1"></stop><stop offset="70%" stop-color="#202020" stop-opacity="1"></stop></linearGradient></defs><defs><linearGradient id="grad2_0" x1="0%" y1="0%" x2="100%" y2="100%"><stop offset="30%" stop-color="#202020" stop-opacity="1"></stop><stop offset="70%" stop-color="#202020" stop-opacity="1"></stop></linearGradient></defs><g transform="translate(675, 0)"><path d="M0 337.5C-46.8 332.5 -93.6 327.5 -125.9 304C-158.3 280.4 -176.2 238.2 -208.6 208.6C-241 179 -287.9 161.8 -311.8 129.2C-335.7 96.5 -336.6 48.2 -337.5 0L0 0Z" fill="#4d4d4d"></path></g><g transform="translate(0, 900)"><path d="M0 -337.5C51.2 -339.7 102.3 -341.8 129.2 -311.8C156 -281.8 158.4 -219.7 186.7 -186.7C214.9 -153.7 269 -149.9 298.4 -123.6C327.8 -97.4 332.7 -48.7 337.5 0L0 0Z" fill="#4d4d4d"></path></g></svg>