<svg id="visual" viewBox="0 0 960 540" width="960" height="540" xmlns="http://www.w3.org/2000/svg" xmlns:xlink="http://www.w3.org/1999/xlink" version="1.1"><rect x="0" y="0" width="960" height="540" fill="#202020"></rect><path d="M188 0L193 60L231 120L197 180L211 240L232 300L221 360L182 420L204 480L232 540L0 540L0 480L0 420L0 360L0 300L0 240L0 180L0 120L0 60L0 0Z" fill="#4d4d4d"></path><path d="M189 0L171 60L184 120L199 180L191 240L198 300L186 360L154 420L182 480L157 540L0 540L0 480L0 420L0 360L0 300L0 240L0 180L0 120L0 60L0 0Z" fill="#414141"></path><path d="M153 0L139 60L153 120L153 180L151 240L116 300L112 360L142 420L113 480L119 540L0 540L0 480L0 420L0 360L0 300L0 240L0 180L0 120L0 60L0 0Z" fill="#363636"></path><path d="M108 0L92 60L98 120L72 180L96 240L70 300L80 360L109 420L111 480L112 540L0 540L0 480L0 420L0 360L0 300L0 240L0 180L0 120L0 60L0 0Z" fill="#2b2b2b"></path><path d="M35 0L39 60L49 120L68 180L32 240L49 300L39 360L59 420L39 480L49 540L0 540L0 480L0 420L0 360L0 300L0 240L0 180L0 120L0 60L0 0Z" fill="#202020"></path></svg>