<svg id="visual" viewBox="0 0 675 900" width="675" height="900" xmlns="http://www.w3.org/2000/svg" xmlns:xlink="http://www.w3.org/1999/xlink" version="1.1"><rect x="0" y="0" width="675" height="900" fill="#202020"></rect><path d="M133 0L136 100L163 200L139 300L148 400L164 500L156 600L128 700L144 800L164 900L0 900L0 800L0 700L0 600L0 500L0 400L0 300L0 200L0 100L0 0Z" fill="#4d4d4d"></path><path d="M133 0L121 100L130 200L140 300L135 400L140 500L131 600L109 700L128 800L111 900L0 900L0 800L0 700L0 600L0 500L0 400L0 300L0 200L0 100L0 0Z" fill="#414141"></path><path d="M108 0L98 100L108 200L108 300L106 400L82 500L79 600L100 700L80 800L84 900L0 900L0 800L0 700L0 600L0 500L0 400L0 300L0 200L0 100L0 0Z" fill="#363636"></path><path d="M76 0L65 100L69 200L51 300L68 400L49 500L57 600L77 700L78 800L79 900L0 900L0 800L0 700L0 600L0 500L0 400L0 300L0 200L0 100L0 0Z" fill="#2b2b2b"></path><path d="M25 0L27 100L35 200L48 300L23 400L35 500L28 600L42 700L28 800L35 900L0 900L0 800L0 700L0 600L0 500L0 400L0 300L0 200L0 100L0 0Z" fill="#202020"></path></svg>