<svg id="visual" viewBox="0 0 600 900" width="600" height="900" xmlns="http://www.w3.org/2000/svg" xmlns:xlink="http://www.w3.org/1999/xlink" version="1.1"><rect width="600" height="900" fill="#202020"></rect><g><g transform="translate(78 580)"><path d="M0 -114.9L99.5 -57.5L99.5 57.5L0 114.9L-99.5 57.5L-99.5 -57.5Z" fill="#4d4d4d"></path></g><g transform="translate(531 608)"><path d="M0 -106L91.8 -53L91.8 53L0 106L-91.8 53L-91.8 -53Z" fill="#4d4d4d"></path></g><g transform="translate(334 824)"><path d="M0 -92L79.7 -46L79.7 46L0 92L-79.7 46L-79.7 -46Z" fill="#4d4d4d"></path></g><g transform="translate(269 261)"><path d="M0 -106L91.8 -53L91.8 53L0 106L-91.8 53L-91.8 -53Z" fill="#4d4d4d"></path></g></g></svg>