<svg id="visual" viewBox="0 0 960 540" width="960" height="540" xmlns="http://www.w3.org/2000/svg" xmlns:xlink="http://www.w3.org/1999/xlink" version="1.1"><rect x="0" y="0" width="960" height="540" fill="#202020"></rect><path d="M101 0L85.3 22.5C69.7 45 38.3 90 61 135C83.7 180 160.3 225 192.5 270C224.7 315 212.3 360 175.3 405C138.3 450 76.7 495 45.8 517.5L15 540L0 540L0 517.5C0 495 0 450 0 405C0 360 0 315 0 270C0 225 0 180 0 135C0 90 0 45 0 22.5L0 0Z" fill="#4d4d4d" stroke-linecap="round" stroke-linejoin="miter"></path></svg>