<svg id="visual" viewBox="0 0 960 540" width="960" height="540" xmlns="http://www.w3.org/2000/svg" xmlns:xlink="http://www.w3.org/1999/xlink" version="1.1"><rect x="0" y="0" width="960" height="540" fill="#202020"></rect><path d="M475 540L509.8 517.5C544.7 495 614.3 450 631.2 405C648 360 612 315 615.5 270C619 225 662 180 697.3 135C732.7 90 760.3 45 774.2 22.5L788 0L960 0L960 22.5C960 45 960 90 960 135C960 180 960 225 960 270C960 315 960 360 960 405C960 450 960 495 960 517.5L960 540Z" fill="#4d4d4d" stroke-linecap="round" stroke-linejoin="miter"></path></svg>